<svg xmlns="http://www.w3.org/2000/svg" viewBox="0 0 823.48 951.97"><defs><style>.a{fill:#f29727;}.b{fill:#fff;}.c{fill:#ffad01;}.d{fill:#f28727;}</style></defs><path class="a" d="M4.48,711.47V245.27l74,43.27V667.13a4,4,0,0,0,2,3.47l328,189V945Z"/><path class="b" d="M8.48,252.25l66,38.58v376.3a8,8,0,0,0,4,6.93L404.48,862V938L8.48,709.16V252.25m-8-13.95V713.77l412,238.13V857.32l-330-190.19V286.24L.48,238.3Z"/><polygon class="c" points="416.48 859.72 819.48 626.08 819.48 712.64 416.48 945.05 416.48 859.72"/><path class="b" d="M815.48,633v77.31l-395,227.79V862l395-229m8-13.88-411,238.28V952l411-237V619.14Z"/><path class="d" d="M90,667l75.21-43.3L410.32,765.06a4,4,0,0,0,4,0L741.41,575.82l74,43.28L412.32,852.81Z"/><path class="b" d="M741.4,580.45l66.08,38.63L412.31,848.19,98,667l67.19-38.68L408.33,768.53a8,8,0,0,0,8,0L741.4,580.45m0-9.25L412.32,761.6,165.18,619.11,82,667l330.36,190.4L823.38,619.11l-82-47.91Z"/><path class="c" d="M86.48,288.51l81.19-46.74,241-138.93-1.14,85.21-244,142.68a4,4,0,0,0-2,3.45V616.86L86.48,660Z"/><path class="b" d="M404.55,109.81l-1,75.93L161.44,327.27a8,8,0,0,0-4,6.91V614.55l-67,38.58V290.83l79.19-45.6L404.55,109.81m8.19-14L165.67,238.3,82.48,286.2V667l83-47.78v-285l246-143.82,1.26-94.5Z"/><polygon class="a" points="415.25 188.12 416.39 102.76 737.48 288.52 737.48 373.83 415.25 188.12"/><path class="b" d="M420.3,109.64,733.48,290.83v76.08L419.28,185.83l1-76.19m-7.82-13.77-1.26,94.54L741.48,380.75V286.21l-329-190.34Z"/><polygon class="c" points="173.34 619.13 490.48 435.65 490.48 520.98 247.42 662.4 173.34 619.13"/><path class="b" d="M486.48,442.58v76.1l-239,139.09L181.3,619.15,486.48,442.58m8-13.87-329.1,190.4,82,47.92L494.48,523.28V428.71Z"/><path class="d" d="M8,238.33,412.32,4.62,815.43,238.33l-74,43.27L414.32,92.37a4,4,0,0,0-2-.54,4.07,4.07,0,0,0-2,.53L82,281.6Z"/><path class="b" d="M412.32,9.24l395.16,229.1L741.4,277,416.33,88.91a8,8,0,0,0-8,0L82,277,15.92,238.35,412.32,9.24m0-9.24L0,238.31l82,47.92L412.32,95.83l329.1,190.4,82-47.92L412.32,0Z"/><polygon class="d" points="169.48 525.91 412.61 385.43 486.62 428.69 169.48 612.18 169.48 525.91"/><path class="b" d="M412.6,390.05l66.07,38.63L173.48,605.24v-77L412.6,390.05m0-9.25L165.48,523.61v95.5l329.1-190.4-82-47.91Z"/><polygon class="c" points="745.48 288.51 819.48 245.25 819.48 331.83 745.48 373.95 745.48 288.51"/><path class="b" d="M815.48,252.22V329.5l-66,37.57V290.81l66-38.59m8-13.94-82,47.94v94.61l82-46.67V238.28Z"/></svg>